<?xml version="1.0" encoding="UTF-8" standalone="no"?>
<!DOCTYPE svg PUBLIC "-//W3C//DTD SVG 1.1//EN"
 "http://www.w3.org/Graphics/SVG/1.1/DTD/svg11.dtd">
<!-- Generated by graphviz version 2.48.0 (20210717.2242)
 -->
<!-- Title: snakemake_dag Pages: 1 -->
<svg width="2724pt" height="337pt"
 viewBox="0.00 0.00 2724.48 337.00" xmlns="http://www.w3.org/2000/svg" xmlns:xlink="http://www.w3.org/1999/xlink">
<g id="graph0" class="graph" transform="scale(1 1) rotate(0) translate(4 333)">
<title>snakemake_dag</title>
<polygon fill="white" stroke="transparent" points="-4,4 -4,-333 2720.48,-333 2720.48,4 -4,4"/>
<!-- 0 -->
<g id="node1" class="node">
<title>0</title>
<path fill="none" stroke="#d8bc56" stroke-width="2" d="M1367.54,-36C1367.54,-36 1315.54,-36 1315.54,-36 1309.54,-36 1303.54,-30 1303.54,-24 1303.54,-24 1303.54,-12 1303.54,-12 1303.54,-6 1309.54,0 1315.54,0 1315.54,0 1367.54,0 1367.54,0 1373.54,0 1379.54,-6 1379.54,-12 1379.54,-12 1379.54,-24 1379.54,-24 1379.54,-30 1373.54,-36 1367.54,-36"/>
<text text-anchor="middle" x="1341.54" y="-15.5" font-family="sans" font-size="10.00">FINAL_GFF3</text>
</g>
<!-- 1 -->
<g id="node2" class="node">
<title>1</title>
<path fill="none" stroke="#56c1d8" stroke-width="2" d="M1387.54,-257C1387.54,-257 1333.54,-257 1333.54,-257 1327.54,-257 1321.54,-251 1321.54,-245 1321.54,-245 1321.54,-233 1321.54,-233 1321.54,-227 1327.54,-221 1333.54,-221 1333.54,-221 1387.54,-221 1387.54,-221 1393.54,-221 1399.54,-227 1399.54,-233 1399.54,-233 1399.54,-245 1399.54,-245 1399.54,-251 1393.54,-257 1387.54,-257"/>
<text text-anchor="middle" x="1360.54" y="-236.5" font-family="sans" font-size="10.00">Chr_splitting</text>
</g>
<!-- 1&#45;&gt;0 -->
<g id="edge1" class="edge">
<title>1&#45;&gt;0</title>
<path fill="none" stroke="grey" stroke-width="2" d="M1321.32,-237.97C1104.22,-237.63 58.12,-233.44 11.54,-185 -30.55,-141.22 59.74,-76.02 67.54,-72 177.97,-15.12 1074.09,-17.24 1293.29,-18.62"/>
<polygon fill="grey" stroke="grey" stroke-width="2" points="1293.49,-22.13 1303.51,-18.69 1293.53,-15.13 1293.49,-22.13"/>
</g>
<!-- 3 -->
<g id="node4" class="node">
<title>3</title>
<path fill="none" stroke="#88d856" stroke-width="2" d="M104.04,-185C104.04,-185 33.04,-185 33.04,-185 27.04,-185 21.04,-179 21.04,-173 21.04,-173 21.04,-156 21.04,-156 21.04,-150 27.04,-144 33.04,-144 33.04,-144 104.04,-144 104.04,-144 110.04,-144 116.04,-150 116.04,-156 116.04,-156 116.04,-173 116.04,-173 116.04,-179 110.04,-185 104.04,-185"/>
<text text-anchor="middle" x="68.54" y="-173" font-family="sans" font-size="10.00">EDTA_individual</text>
<text text-anchor="middle" x="68.54" y="-162" font-family="sans" font-size="10.00">Chrs: 1</text>
<text text-anchor="middle" x="68.54" y="-151" font-family="sans" font-size="10.00">Project: HanIR</text>
</g>
<!-- 1&#45;&gt;3 -->
<g id="edge39" class="edge">
<title>1&#45;&gt;3</title>
<path fill="none" stroke="grey" stroke-width="2" d="M1321.53,-237.69C1138.9,-236.03 367.51,-226.63 130.54,-185 129.09,-184.74 127.61,-184.46 126.13,-184.16"/>
<polygon fill="grey" stroke="grey" stroke-width="2" points="126.83,-180.73 116.3,-181.88 125.25,-187.55 126.83,-180.73"/>
</g>
<!-- 4 -->
<g id="node5" class="node">
<title>4</title>
<path fill="none" stroke="#88d856" stroke-width="2" d="M256.04,-185C256.04,-185 185.04,-185 185.04,-185 179.04,-185 173.04,-179 173.04,-173 173.04,-173 173.04,-156 173.04,-156 173.04,-150 179.04,-144 185.04,-144 185.04,-144 256.04,-144 256.04,-144 262.04,-144 268.04,-150 268.04,-156 268.04,-156 268.04,-173 268.04,-173 268.04,-179 262.04,-185 256.04,-185"/>
<text text-anchor="middle" x="220.54" y="-173" font-family="sans" font-size="10.00">EDTA_individual</text>
<text text-anchor="middle" x="220.54" y="-162" font-family="sans" font-size="10.00">Chrs: 2</text>
<text text-anchor="middle" x="220.54" y="-151" font-family="sans" font-size="10.00">Project: HanIR</text>
</g>
<!-- 1&#45;&gt;4 -->
<g id="edge40" class="edge">
<title>1&#45;&gt;4</title>
<path fill="none" stroke="grey" stroke-width="2" d="M1321.39,-237.41C1152.81,-234.68 488.1,-221.75 282.54,-185 281.09,-184.74 279.62,-184.45 278.14,-184.15"/>
<polygon fill="grey" stroke="grey" stroke-width="2" points="278.84,-180.72 268.31,-181.85 277.25,-187.53 278.84,-180.72"/>
</g>
<!-- 5 -->
<g id="node6" class="node">
<title>5</title>
<path fill="none" stroke="#88d856" stroke-width="2" d="M408.04,-185C408.04,-185 337.04,-185 337.04,-185 331.04,-185 325.04,-179 325.04,-173 325.04,-173 325.04,-156 325.04,-156 325.04,-150 331.04,-144 337.04,-144 337.04,-144 408.04,-144 408.04,-144 414.04,-144 420.04,-150 420.04,-156 420.04,-156 420.04,-173 420.04,-173 420.04,-179 414.04,-185 408.04,-185"/>
<text text-anchor="middle" x="372.54" y="-173" font-family="sans" font-size="10.00">EDTA_individual</text>
<text text-anchor="middle" x="372.54" y="-162" font-family="sans" font-size="10.00">Chrs: 3</text>
<text text-anchor="middle" x="372.54" y="-151" font-family="sans" font-size="10.00">Project: HanIR</text>
</g>
<!-- 1&#45;&gt;5 -->
<g id="edge41" class="edge">
<title>1&#45;&gt;5</title>
<path fill="none" stroke="grey" stroke-width="2" d="M1321.36,-237.05C1168.06,-233.13 608.88,-216.89 434.54,-185 433.09,-184.73 431.62,-184.44 430.14,-184.13"/>
<polygon fill="grey" stroke="grey" stroke-width="2" points="430.85,-180.7 420.31,-181.81 429.24,-187.52 430.85,-180.7"/>
</g>
<!-- 6 -->
<g id="node7" class="node">
<title>6</title>
<path fill="none" stroke="#88d856" stroke-width="2" d="M560.04,-185C560.04,-185 489.04,-185 489.04,-185 483.04,-185 477.04,-179 477.04,-173 477.04,-173 477.04,-156 477.04,-156 477.04,-150 483.04,-144 489.04,-144 489.04,-144 560.04,-144 560.04,-144 566.04,-144 572.04,-150 572.04,-156 572.04,-156 572.04,-173 572.04,-173 572.04,-179 566.04,-185 560.04,-185"/>
<text text-anchor="middle" x="524.54" y="-173" font-family="sans" font-size="10.00">EDTA_individual</text>
<text text-anchor="middle" x="524.54" y="-162" font-family="sans" font-size="10.00">Chrs: 4</text>
<text text-anchor="middle" x="524.54" y="-151" font-family="sans" font-size="10.00">Project: HanIR</text>
</g>
<!-- 1&#45;&gt;6 -->
<g id="edge42" class="edge">
<title>1&#45;&gt;6</title>
<path fill="none" stroke="grey" stroke-width="2" d="M1321.48,-238.56C1207.26,-239.52 864.49,-237.46 586.54,-185 585.09,-184.73 583.62,-184.43 582.14,-184.11"/>
<polygon fill="grey" stroke="grey" stroke-width="2" points="582.86,-180.68 572.32,-181.76 581.23,-187.49 582.86,-180.68"/>
</g>
<!-- 7 -->
<g id="node8" class="node">
<title>7</title>
<path fill="none" stroke="#88d856" stroke-width="2" d="M712.04,-185C712.04,-185 641.04,-185 641.04,-185 635.04,-185 629.04,-179 629.04,-173 629.04,-173 629.04,-156 629.04,-156 629.04,-150 635.04,-144 641.04,-144 641.04,-144 712.04,-144 712.04,-144 718.04,-144 724.04,-150 724.04,-156 724.04,-156 724.04,-173 724.04,-173 724.04,-179 718.04,-185 712.04,-185"/>
<text text-anchor="middle" x="676.54" y="-173" font-family="sans" font-size="10.00">EDTA_individual</text>
<text text-anchor="middle" x="676.54" y="-162" font-family="sans" font-size="10.00">Chrs: 5</text>
<text text-anchor="middle" x="676.54" y="-151" font-family="sans" font-size="10.00">Project: HanIR</text>
</g>
<!-- 1&#45;&gt;7 -->
<g id="edge43" class="edge">
<title>1&#45;&gt;7</title>
<path fill="none" stroke="grey" stroke-width="2" d="M1321.19,-237.63C1222.29,-236.07 955.72,-227.86 738.54,-185 737.09,-184.71 735.62,-184.4 734.15,-184.08"/>
<polygon fill="grey" stroke="grey" stroke-width="2" points="734.88,-180.65 724.34,-181.67 733.22,-187.45 734.88,-180.65"/>
</g>
<!-- 8 -->
<g id="node9" class="node">
<title>8</title>
<path fill="none" stroke="#88d856" stroke-width="2" d="M864.04,-185C864.04,-185 793.04,-185 793.04,-185 787.04,-185 781.04,-179 781.04,-173 781.04,-173 781.04,-156 781.04,-156 781.04,-150 787.04,-144 793.04,-144 793.04,-144 864.04,-144 864.04,-144 870.04,-144 876.04,-150 876.04,-156 876.04,-156 876.04,-173 876.04,-173 876.04,-179 870.04,-185 864.04,-185"/>
<text text-anchor="middle" x="828.54" y="-173" font-family="sans" font-size="10.00">EDTA_individual</text>
<text text-anchor="middle" x="828.54" y="-162" font-family="sans" font-size="10.00">Chrs: 6</text>
<text text-anchor="middle" x="828.54" y="-151" font-family="sans" font-size="10.00">Project: HanIR</text>
</g>
<!-- 1&#45;&gt;8 -->
<g id="edge44" class="edge">
<title>1&#45;&gt;8</title>
<path fill="none" stroke="grey" stroke-width="2" d="M1321.45,-236.14C1240.35,-231.72 1048.2,-218.36 890.54,-185 889.1,-184.69 887.63,-184.37 886.16,-184.02"/>
<polygon fill="grey" stroke="grey" stroke-width="2" points="886.92,-180.61 876.37,-181.54 885.2,-187.39 886.92,-180.61"/>
</g>
<!-- 9 -->
<g id="node10" class="node">
<title>9</title>
<path fill="none" stroke="#88d856" stroke-width="2" d="M1016.04,-185C1016.04,-185 945.04,-185 945.04,-185 939.04,-185 933.04,-179 933.04,-173 933.04,-173 933.04,-156 933.04,-156 933.04,-150 939.04,-144 945.04,-144 945.04,-144 1016.04,-144 1016.04,-144 1022.04,-144 1028.04,-150 1028.04,-156 1028.04,-156 1028.04,-173 1028.04,-173 1028.04,-179 1022.04,-185 1016.04,-185"/>
<text text-anchor="middle" x="980.54" y="-173" font-family="sans" font-size="10.00">EDTA_individual</text>
<text text-anchor="middle" x="980.54" y="-162" font-family="sans" font-size="10.00">Chrs: 7</text>
<text text-anchor="middle" x="980.54" y="-151" font-family="sans" font-size="10.00">Project: HanIR</text>
</g>
<!-- 1&#45;&gt;9 -->
<g id="edge45" class="edge">
<title>1&#45;&gt;9</title>
<path fill="none" stroke="grey" stroke-width="2" d="M1321.52,-233.28C1261.2,-225.59 1141.88,-208.78 1042.54,-185 1041.07,-184.65 1039.58,-184.28 1038.08,-183.89"/>
<polygon fill="grey" stroke="grey" stroke-width="2" points="1038.65,-180.42 1028.08,-181.19 1036.82,-187.18 1038.65,-180.42"/>
</g>
<!-- 10 -->
<g id="node11" class="node">
<title>10</title>
<path fill="none" stroke="#88d856" stroke-width="2" d="M1168.04,-185C1168.04,-185 1097.04,-185 1097.04,-185 1091.04,-185 1085.04,-179 1085.04,-173 1085.04,-173 1085.04,-156 1085.04,-156 1085.04,-150 1091.04,-144 1097.04,-144 1097.04,-144 1168.04,-144 1168.04,-144 1174.04,-144 1180.04,-150 1180.04,-156 1180.04,-156 1180.04,-173 1180.04,-173 1180.04,-179 1174.04,-185 1168.04,-185"/>
<text text-anchor="middle" x="1132.54" y="-173" font-family="sans" font-size="10.00">EDTA_individual</text>
<text text-anchor="middle" x="1132.54" y="-162" font-family="sans" font-size="10.00">Chrs: 8</text>
<text text-anchor="middle" x="1132.54" y="-151" font-family="sans" font-size="10.00">Project: HanIR</text>
</g>
<!-- 1&#45;&gt;10 -->
<g id="edge46" class="edge">
<title>1&#45;&gt;10</title>
<path fill="none" stroke="grey" stroke-width="2" d="M1321.35,-225.54C1285.16,-214.03 1230.97,-196.8 1189.92,-183.74"/>
<polygon fill="grey" stroke="grey" stroke-width="2" points="1190.9,-180.38 1180.31,-180.69 1188.78,-187.05 1190.9,-180.38"/>
</g>
<!-- 11 -->
<g id="node12" class="node">
<title>11</title>
<path fill="none" stroke="#88d856" stroke-width="2" d="M1320.04,-185C1320.04,-185 1249.04,-185 1249.04,-185 1243.04,-185 1237.04,-179 1237.04,-173 1237.04,-173 1237.04,-156 1237.04,-156 1237.04,-150 1243.04,-144 1249.04,-144 1249.04,-144 1320.04,-144 1320.04,-144 1326.04,-144 1332.04,-150 1332.04,-156 1332.04,-156 1332.04,-173 1332.04,-173 1332.04,-179 1326.04,-185 1320.04,-185"/>
<text text-anchor="middle" x="1284.54" y="-173" font-family="sans" font-size="10.00">EDTA_individual</text>
<text text-anchor="middle" x="1284.54" y="-162" font-family="sans" font-size="10.00">Chrs: 9</text>
<text text-anchor="middle" x="1284.54" y="-151" font-family="sans" font-size="10.00">Project: HanIR</text>
</g>
<!-- 1&#45;&gt;11 -->
<g id="edge47" class="edge">
<title>1&#45;&gt;11</title>
<path fill="none" stroke="grey" stroke-width="2" d="M1342.53,-220.82C1333.58,-212.28 1322.55,-201.76 1312.53,-192.2"/>
<polygon fill="grey" stroke="grey" stroke-width="2" points="1314.76,-189.49 1305.11,-185.12 1309.93,-194.55 1314.76,-189.49"/>
</g>
<!-- 12 -->
<g id="node13" class="node">
<title>12</title>
<path fill="none" stroke="#88d856" stroke-width="2" d="M1472.04,-185C1472.04,-185 1401.04,-185 1401.04,-185 1395.04,-185 1389.04,-179 1389.04,-173 1389.04,-173 1389.04,-156 1389.04,-156 1389.04,-150 1395.04,-144 1401.04,-144 1401.04,-144 1472.04,-144 1472.04,-144 1478.04,-144 1484.04,-150 1484.04,-156 1484.04,-156 1484.04,-173 1484.04,-173 1484.04,-179 1478.04,-185 1472.04,-185"/>
<text text-anchor="middle" x="1436.54" y="-173" font-family="sans" font-size="10.00">EDTA_individual</text>
<text text-anchor="middle" x="1436.54" y="-162" font-family="sans" font-size="10.00">Chrs: 10</text>
<text text-anchor="middle" x="1436.54" y="-151" font-family="sans" font-size="10.00">Project: HanIR</text>
</g>
<!-- 1&#45;&gt;12 -->
<g id="edge48" class="edge">
<title>1&#45;&gt;12</title>
<path fill="none" stroke="grey" stroke-width="2" d="M1378.56,-220.82C1387.51,-212.28 1398.54,-201.76 1408.56,-192.2"/>
<polygon fill="grey" stroke="grey" stroke-width="2" points="1411.16,-194.55 1415.98,-185.12 1406.33,-189.49 1411.16,-194.55"/>
</g>
<!-- 13 -->
<g id="node14" class="node">
<title>13</title>
<path fill="none" stroke="#88d856" stroke-width="2" d="M1624.04,-185C1624.04,-185 1553.04,-185 1553.04,-185 1547.04,-185 1541.04,-179 1541.04,-173 1541.04,-173 1541.04,-156 1541.04,-156 1541.04,-150 1547.04,-144 1553.04,-144 1553.04,-144 1624.04,-144 1624.04,-144 1630.04,-144 1636.04,-150 1636.04,-156 1636.04,-156 1636.04,-173 1636.04,-173 1636.04,-179 1630.04,-185 1624.04,-185"/>
<text text-anchor="middle" x="1588.54" y="-173" font-family="sans" font-size="10.00">EDTA_individual</text>
<text text-anchor="middle" x="1588.54" y="-162" font-family="sans" font-size="10.00">Chrs: 11</text>
<text text-anchor="middle" x="1588.54" y="-151" font-family="sans" font-size="10.00">Project: HanIR</text>
</g>
<!-- 1&#45;&gt;13 -->
<g id="edge49" class="edge">
<title>1&#45;&gt;13</title>
<path fill="none" stroke="grey" stroke-width="2" d="M1399.74,-225.54C1435.93,-214.03 1490.12,-196.8 1531.17,-183.74"/>
<polygon fill="grey" stroke="grey" stroke-width="2" points="1532.31,-187.05 1540.78,-180.69 1530.19,-180.38 1532.31,-187.05"/>
</g>
<!-- 14 -->
<g id="node15" class="node">
<title>14</title>
<path fill="none" stroke="#88d856" stroke-width="2" d="M1776.04,-185C1776.04,-185 1705.04,-185 1705.04,-185 1699.04,-185 1693.04,-179 1693.04,-173 1693.04,-173 1693.04,-156 1693.04,-156 1693.04,-150 1699.04,-144 1705.04,-144 1705.04,-144 1776.04,-144 1776.04,-144 1782.04,-144 1788.04,-150 1788.04,-156 1788.04,-156 1788.04,-173 1788.04,-173 1788.04,-179 1782.04,-185 1776.04,-185"/>
<text text-anchor="middle" x="1740.54" y="-173" font-family="sans" font-size="10.00">EDTA_individual</text>
<text text-anchor="middle" x="1740.54" y="-162" font-family="sans" font-size="10.00">Chrs: 12</text>
<text text-anchor="middle" x="1740.54" y="-151" font-family="sans" font-size="10.00">Project: HanIR</text>
</g>
<!-- 1&#45;&gt;14 -->
<g id="edge50" class="edge">
<title>1&#45;&gt;14</title>
<path fill="none" stroke="grey" stroke-width="2" d="M1399.57,-233.28C1459.89,-225.59 1579.21,-208.78 1678.54,-185 1680.02,-184.65 1681.51,-184.28 1683.01,-183.89"/>
<polygon fill="grey" stroke="grey" stroke-width="2" points="1684.27,-187.18 1693,-181.19 1682.44,-180.42 1684.27,-187.18"/>
</g>
<!-- 15 -->
<g id="node16" class="node">
<title>15</title>
<path fill="none" stroke="#88d856" stroke-width="2" d="M1928.04,-185C1928.04,-185 1857.04,-185 1857.04,-185 1851.04,-185 1845.04,-179 1845.04,-173 1845.04,-173 1845.04,-156 1845.04,-156 1845.04,-150 1851.04,-144 1857.04,-144 1857.04,-144 1928.04,-144 1928.04,-144 1934.04,-144 1940.04,-150 1940.04,-156 1940.04,-156 1940.04,-173 1940.04,-173 1940.04,-179 1934.04,-185 1928.04,-185"/>
<text text-anchor="middle" x="1892.54" y="-173" font-family="sans" font-size="10.00">EDTA_individual</text>
<text text-anchor="middle" x="1892.54" y="-162" font-family="sans" font-size="10.00">Chrs: 13</text>
<text text-anchor="middle" x="1892.54" y="-151" font-family="sans" font-size="10.00">Project: HanIR</text>
</g>
<!-- 1&#45;&gt;15 -->
<g id="edge51" class="edge">
<title>1&#45;&gt;15</title>
<path fill="none" stroke="grey" stroke-width="2" d="M1399.64,-236.14C1480.74,-231.72 1672.89,-218.36 1830.54,-185 1831.99,-184.69 1833.46,-184.37 1834.93,-184.02"/>
<polygon fill="grey" stroke="grey" stroke-width="2" points="1835.89,-187.39 1844.72,-181.54 1834.17,-180.61 1835.89,-187.39"/>
</g>
<!-- 16 -->
<g id="node17" class="node">
<title>16</title>
<path fill="none" stroke="#88d856" stroke-width="2" d="M2080.04,-185C2080.04,-185 2009.04,-185 2009.04,-185 2003.04,-185 1997.04,-179 1997.04,-173 1997.04,-173 1997.04,-156 1997.04,-156 1997.04,-150 2003.04,-144 2009.04,-144 2009.04,-144 2080.04,-144 2080.04,-144 2086.04,-144 2092.04,-150 2092.04,-156 2092.04,-156 2092.04,-173 2092.04,-173 2092.04,-179 2086.04,-185 2080.04,-185"/>
<text text-anchor="middle" x="2044.54" y="-173" font-family="sans" font-size="10.00">EDTA_individual</text>
<text text-anchor="middle" x="2044.54" y="-162" font-family="sans" font-size="10.00">Chrs: 14</text>
<text text-anchor="middle" x="2044.54" y="-151" font-family="sans" font-size="10.00">Project: HanIR</text>
</g>
<!-- 1&#45;&gt;16 -->
<g id="edge52" class="edge">
<title>1&#45;&gt;16</title>
<path fill="none" stroke="grey" stroke-width="2" d="M1399.9,-237.63C1498.8,-236.07 1765.37,-227.86 1982.54,-185 1984,-184.71 1985.46,-184.4 1986.94,-184.08"/>
<polygon fill="grey" stroke="grey" stroke-width="2" points="1987.87,-187.45 1996.75,-181.67 1986.2,-180.65 1987.87,-187.45"/>
</g>
<!-- 17 -->
<g id="node18" class="node">
<title>17</title>
<path fill="none" stroke="#88d856" stroke-width="2" d="M2232.04,-185C2232.04,-185 2161.04,-185 2161.04,-185 2155.04,-185 2149.04,-179 2149.04,-173 2149.04,-173 2149.04,-156 2149.04,-156 2149.04,-150 2155.04,-144 2161.04,-144 2161.04,-144 2232.04,-144 2232.04,-144 2238.04,-144 2244.04,-150 2244.04,-156 2244.04,-156 2244.04,-173 2244.04,-173 2244.04,-179 2238.04,-185 2232.04,-185"/>
<text text-anchor="middle" x="2196.54" y="-173" font-family="sans" font-size="10.00">EDTA_individual</text>
<text text-anchor="middle" x="2196.54" y="-162" font-family="sans" font-size="10.00">Chrs: 15</text>
<text text-anchor="middle" x="2196.54" y="-151" font-family="sans" font-size="10.00">Project: HanIR</text>
</g>
<!-- 1&#45;&gt;17 -->
<g id="edge53" class="edge">
<title>1&#45;&gt;17</title>
<path fill="none" stroke="grey" stroke-width="2" d="M1399.61,-238.56C1513.83,-239.52 1856.6,-237.46 2134.54,-185 2136,-184.73 2137.47,-184.43 2138.95,-184.11"/>
<polygon fill="grey" stroke="grey" stroke-width="2" points="2139.86,-187.49 2148.77,-181.76 2138.23,-180.68 2139.86,-187.49"/>
</g>
<!-- 18 -->
<g id="node19" class="node">
<title>18</title>
<path fill="none" stroke="#88d856" stroke-width="2" d="M2384.04,-185C2384.04,-185 2313.04,-185 2313.04,-185 2307.04,-185 2301.04,-179 2301.04,-173 2301.04,-173 2301.04,-156 2301.04,-156 2301.04,-150 2307.04,-144 2313.04,-144 2313.04,-144 2384.04,-144 2384.04,-144 2390.04,-144 2396.04,-150 2396.04,-156 2396.04,-156 2396.04,-173 2396.04,-173 2396.04,-179 2390.04,-185 2384.04,-185"/>
<text text-anchor="middle" x="2348.54" y="-173" font-family="sans" font-size="10.00">EDTA_individual</text>
<text text-anchor="middle" x="2348.54" y="-162" font-family="sans" font-size="10.00">Chrs: 16</text>
<text text-anchor="middle" x="2348.54" y="-151" font-family="sans" font-size="10.00">Project: HanIR</text>
</g>
<!-- 1&#45;&gt;18 -->
<g id="edge54" class="edge">
<title>1&#45;&gt;18</title>
<path fill="none" stroke="grey" stroke-width="2" d="M1399.73,-237.05C1553.03,-233.13 2112.21,-216.89 2286.54,-185 2288,-184.73 2289.47,-184.44 2290.95,-184.13"/>
<polygon fill="grey" stroke="grey" stroke-width="2" points="2291.85,-187.52 2300.78,-181.81 2290.24,-180.7 2291.85,-187.52"/>
</g>
<!-- 19 -->
<g id="node20" class="node">
<title>19</title>
<path fill="none" stroke="#88d856" stroke-width="2" d="M2536.04,-185C2536.04,-185 2465.04,-185 2465.04,-185 2459.04,-185 2453.04,-179 2453.04,-173 2453.04,-173 2453.04,-156 2453.04,-156 2453.04,-150 2459.04,-144 2465.04,-144 2465.04,-144 2536.04,-144 2536.04,-144 2542.04,-144 2548.04,-150 2548.04,-156 2548.04,-156 2548.04,-173 2548.04,-173 2548.04,-179 2542.04,-185 2536.04,-185"/>
<text text-anchor="middle" x="2500.54" y="-173" font-family="sans" font-size="10.00">EDTA_individual</text>
<text text-anchor="middle" x="2500.54" y="-162" font-family="sans" font-size="10.00">Chrs: 17</text>
<text text-anchor="middle" x="2500.54" y="-151" font-family="sans" font-size="10.00">Project: HanIR</text>
</g>
<!-- 1&#45;&gt;19 -->
<g id="edge55" class="edge">
<title>1&#45;&gt;19</title>
<path fill="none" stroke="grey" stroke-width="2" d="M1399.7,-237.41C1568.28,-234.68 2232.99,-221.75 2438.54,-185 2440,-184.74 2441.47,-184.45 2442.95,-184.15"/>
<polygon fill="grey" stroke="grey" stroke-width="2" points="2443.84,-187.53 2452.78,-181.85 2442.25,-180.72 2443.84,-187.53"/>
</g>
<!-- 20 -->
<g id="node21" class="node">
<title>20</title>
<path fill="none" stroke="#88d856" stroke-width="2" d="M2688.04,-185C2688.04,-185 2617.04,-185 2617.04,-185 2611.04,-185 2605.04,-179 2605.04,-173 2605.04,-173 2605.04,-156 2605.04,-156 2605.04,-150 2611.04,-144 2617.04,-144 2617.04,-144 2688.04,-144 2688.04,-144 2694.04,-144 2700.04,-150 2700.04,-156 2700.04,-156 2700.04,-173 2700.04,-173 2700.04,-179 2694.04,-185 2688.04,-185"/>
<text text-anchor="middle" x="2652.54" y="-173" font-family="sans" font-size="10.00">EDTA_individual</text>
<text text-anchor="middle" x="2652.54" y="-162" font-family="sans" font-size="10.00">Chrs: 18</text>
<text text-anchor="middle" x="2652.54" y="-151" font-family="sans" font-size="10.00">Project: HanIR</text>
</g>
<!-- 1&#45;&gt;20 -->
<g id="edge56" class="edge">
<title>1&#45;&gt;20</title>
<path fill="none" stroke="grey" stroke-width="2" d="M1399.56,-237.69C1582.19,-236.03 2353.58,-226.63 2590.54,-185 2592,-184.74 2593.48,-184.46 2594.96,-184.16"/>
<polygon fill="grey" stroke="grey" stroke-width="2" points="2595.84,-187.55 2604.79,-181.88 2594.26,-180.73 2595.84,-187.55"/>
</g>
<!-- 21 -->
<g id="node22" class="node">
<title>21</title>
<path fill="none" stroke="#56d88a" stroke-width="2" d="M177.04,-108C177.04,-108 112.04,-108 112.04,-108 106.04,-108 100.04,-102 100.04,-96 100.04,-96 100.04,-84 100.04,-84 100.04,-78 106.04,-72 112.04,-72 112.04,-72 177.04,-72 177.04,-72 183.04,-72 189.04,-78 189.04,-84 189.04,-84 189.04,-96 189.04,-96 189.04,-102 183.04,-108 177.04,-108"/>
<text text-anchor="middle" x="144.54" y="-87.5" font-family="sans" font-size="10.00">Masked_FASTA</text>
</g>
<!-- 1&#45;&gt;21 -->
<g id="edge58" class="edge">
<title>1&#45;&gt;21</title>
<path fill="none" stroke="grey" stroke-width="2" d="M1321.34,-237.61C1119.87,-235.43 208.51,-223.48 163.54,-185 144.82,-168.98 141.4,-140.07 141.84,-118.52"/>
<polygon fill="grey" stroke="grey" stroke-width="2" points="145.35,-118.49 142.34,-108.33 138.35,-118.15 145.35,-118.49"/>
</g>
<!-- 22 -->
<g id="node23" class="node">
<title>22</title>
<path fill="none" stroke="#56d88a" stroke-width="2" d="M329.04,-108C329.04,-108 264.04,-108 264.04,-108 258.04,-108 252.04,-102 252.04,-96 252.04,-96 252.04,-84 252.04,-84 252.04,-78 258.04,-72 264.04,-72 264.04,-72 329.04,-72 329.04,-72 335.04,-72 341.04,-78 341.04,-84 341.04,-84 341.04,-96 341.04,-96 341.04,-102 335.04,-108 329.04,-108"/>
<text text-anchor="middle" x="296.54" y="-87.5" font-family="sans" font-size="10.00">Masked_FASTA</text>
</g>
<!-- 1&#45;&gt;22 -->
<g id="edge60" class="edge">
<title>1&#45;&gt;22</title>
<path fill="none" stroke="grey" stroke-width="2" d="M1321.54,-237.35C1136.49,-234.1 354.36,-218.43 315.54,-185 296.87,-168.92 293.44,-140.02 293.87,-118.49"/>
<polygon fill="grey" stroke="grey" stroke-width="2" points="297.37,-118.47 294.36,-108.31 290.38,-118.13 297.37,-118.47"/>
</g>
<!-- 23 -->
<g id="node24" class="node">
<title>23</title>
<path fill="none" stroke="#56d88a" stroke-width="2" d="M481.04,-108C481.04,-108 416.04,-108 416.04,-108 410.04,-108 404.04,-102 404.04,-96 404.04,-96 404.04,-84 404.04,-84 404.04,-78 410.04,-72 416.04,-72 416.04,-72 481.04,-72 481.04,-72 487.04,-72 493.04,-78 493.04,-84 493.04,-84 493.04,-96 493.04,-96 493.04,-102 487.04,-108 481.04,-108"/>
<text text-anchor="middle" x="448.54" y="-87.5" font-family="sans" font-size="10.00">Masked_FASTA</text>
</g>
<!-- 1&#45;&gt;23 -->
<g id="edge62" class="edge">
<title>1&#45;&gt;23</title>
<path fill="none" stroke="grey" stroke-width="2" d="M1321.47,-238.43C1157.78,-239.87 532.69,-241.6 467.54,-185 448.94,-168.84 445.5,-139.95 445.9,-118.45"/>
<polygon fill="grey" stroke="grey" stroke-width="2" points="449.41,-118.43 446.38,-108.28 442.42,-118.1 449.41,-118.43"/>
</g>
<!-- 24 -->
<g id="node25" class="node">
<title>24</title>
<path fill="none" stroke="#56d88a" stroke-width="2" d="M633.04,-108C633.04,-108 568.04,-108 568.04,-108 562.04,-108 556.04,-102 556.04,-96 556.04,-96 556.04,-84 556.04,-84 556.04,-78 562.04,-72 568.04,-72 568.04,-72 633.04,-72 633.04,-72 639.04,-72 645.04,-78 645.04,-84 645.04,-84 645.04,-96 645.04,-96 645.04,-102 639.04,-108 633.04,-108"/>
<text text-anchor="middle" x="600.54" y="-87.5" font-family="sans" font-size="10.00">Masked_FASTA</text>
</g>
<!-- 1&#45;&gt;24 -->
<g id="edge64" class="edge">
<title>1&#45;&gt;24</title>
<path fill="none" stroke="grey" stroke-width="2" d="M1321.41,-237.92C1176,-237.25 672.51,-231.58 619.54,-185 601.04,-168.73 597.58,-139.85 597.96,-118.39"/>
<polygon fill="grey" stroke="grey" stroke-width="2" points="601.46,-118.39 598.42,-108.24 594.47,-118.07 601.46,-118.39"/>
</g>
<!-- 25 -->
<g id="node26" class="node">
<title>25</title>
<path fill="none" stroke="#56d88a" stroke-width="2" d="M785.04,-108C785.04,-108 720.04,-108 720.04,-108 714.04,-108 708.04,-102 708.04,-96 708.04,-96 708.04,-84 708.04,-84 708.04,-78 714.04,-72 720.04,-72 720.04,-72 785.04,-72 785.04,-72 791.04,-72 797.04,-78 797.04,-84 797.04,-84 797.04,-96 797.04,-96 797.04,-102 791.04,-108 785.04,-108"/>
<text text-anchor="middle" x="752.54" y="-87.5" font-family="sans" font-size="10.00">Masked_FASTA</text>
</g>
<!-- 1&#45;&gt;25 -->
<g id="edge66" class="edge">
<title>1&#45;&gt;25</title>
<path fill="none" stroke="grey" stroke-width="2" d="M1321.49,-237.15C1196.56,-234.06 812.46,-221.65 771.54,-185 753.19,-168.56 749.71,-139.71 750.04,-118.3"/>
<polygon fill="grey" stroke="grey" stroke-width="2" points="753.54,-118.32 750.48,-108.17 746.55,-118.01 753.54,-118.32"/>
</g>
<!-- 26 -->
<g id="node27" class="node">
<title>26</title>
<path fill="none" stroke="#56d88a" stroke-width="2" d="M936.04,-108C936.04,-108 871.04,-108 871.04,-108 865.04,-108 859.04,-102 859.04,-96 859.04,-96 859.04,-84 859.04,-84 859.04,-78 865.04,-72 871.04,-72 871.04,-72 936.04,-72 936.04,-72 942.04,-72 948.04,-78 948.04,-84 948.04,-84 948.04,-96 948.04,-96 948.04,-102 942.04,-108 936.04,-108"/>
<text text-anchor="middle" x="903.54" y="-87.5" font-family="sans" font-size="10.00">Masked_FASTA</text>
</g>
<!-- 1&#45;&gt;26 -->
<g id="edge68" class="edge">
<title>1&#45;&gt;26</title>
<path fill="none" stroke="grey" stroke-width="2" d="M1321.48,-235.83C1219.79,-229.83 952.69,-211.66 923.54,-185 905.33,-168.33 901.49,-139.52 901.49,-118.18"/>
<polygon fill="grey" stroke="grey" stroke-width="2" points="904.99,-118.19 901.77,-108.09 898,-117.99 904.99,-118.19"/>
</g>
<!-- 27 -->
<g id="node28" class="node">
<title>27</title>
<path fill="none" stroke="#56d88a" stroke-width="2" d="M1082.04,-108C1082.04,-108 1017.04,-108 1017.04,-108 1011.04,-108 1005.04,-102 1005.04,-96 1005.04,-96 1005.04,-84 1005.04,-84 1005.04,-78 1011.04,-72 1017.04,-72 1017.04,-72 1082.04,-72 1082.04,-72 1088.04,-72 1094.04,-78 1094.04,-84 1094.04,-84 1094.04,-96 1094.04,-96 1094.04,-102 1088.04,-108 1082.04,-108"/>
<text text-anchor="middle" x="1049.54" y="-87.5" font-family="sans" font-size="10.00">Masked_FASTA</text>
</g>
<!-- 1&#45;&gt;27 -->
<g id="edge70" class="edge">
<title>1&#45;&gt;27</title>
<path fill="none" stroke="grey" stroke-width="2" d="M1321.33,-235.75C1251.81,-230.97 1110.91,-217.45 1075.54,-185 1057.19,-168.16 1051.34,-139.62 1049.69,-118.4"/>
<polygon fill="grey" stroke="grey" stroke-width="2" points="1053.18,-118.17 1049.17,-108.36 1046.19,-118.53 1053.18,-118.17"/>
</g>
<!-- 28 -->
<g id="node29" class="node">
<title>28</title>
<path fill="none" stroke="#56d88a" stroke-width="2" d="M1228.04,-108C1228.04,-108 1163.04,-108 1163.04,-108 1157.04,-108 1151.04,-102 1151.04,-96 1151.04,-96 1151.04,-84 1151.04,-84 1151.04,-78 1157.04,-72 1163.04,-72 1163.04,-72 1228.04,-72 1228.04,-72 1234.04,-72 1240.04,-78 1240.04,-84 1240.04,-84 1240.04,-96 1240.04,-96 1240.04,-102 1234.04,-108 1228.04,-108"/>
<text text-anchor="middle" x="1195.54" y="-87.5" font-family="sans" font-size="10.00">Masked_FASTA</text>
</g>
<!-- 1&#45;&gt;28 -->
<g id="edge72" class="edge">
<title>1&#45;&gt;28</title>
<path fill="none" stroke="grey" stroke-width="2" d="M1321.52,-231.55C1292.01,-224.75 1252.46,-211.22 1227.54,-185 1210.25,-166.8 1202.28,-138.89 1198.62,-118.21"/>
<polygon fill="grey" stroke="grey" stroke-width="2" points="1202.05,-117.49 1197.07,-108.14 1195.13,-118.56 1202.05,-117.49"/>
</g>
<!-- 29 -->
<g id="node30" class="node">
<title>29</title>
<path fill="none" stroke="#56d88a" stroke-width="2" d="M1374.04,-108C1374.04,-108 1309.04,-108 1309.04,-108 1303.04,-108 1297.04,-102 1297.04,-96 1297.04,-96 1297.04,-84 1297.04,-84 1297.04,-78 1303.04,-72 1309.04,-72 1309.04,-72 1374.04,-72 1374.04,-72 1380.04,-72 1386.04,-78 1386.04,-84 1386.04,-84 1386.04,-96 1386.04,-96 1386.04,-102 1380.04,-108 1374.04,-108"/>
<text text-anchor="middle" x="1341.54" y="-87.5" font-family="sans" font-size="10.00">Masked_FASTA</text>
</g>
<!-- 1&#45;&gt;29 -->
<g id="edge74" class="edge">
<title>1&#45;&gt;29</title>
<path fill="none" stroke="grey" stroke-width="2" d="M1358.33,-220.85C1355.07,-195.62 1348.95,-148.26 1345.07,-118.24"/>
<polygon fill="grey" stroke="grey" stroke-width="2" points="1348.5,-117.51 1343.75,-108.04 1341.56,-118.41 1348.5,-117.51"/>
</g>
<!-- 30 -->
<g id="node31" class="node">
<title>30</title>
<path fill="none" stroke="#56d88a" stroke-width="2" d="M1520.04,-108C1520.04,-108 1455.04,-108 1455.04,-108 1449.04,-108 1443.04,-102 1443.04,-96 1443.04,-96 1443.04,-84 1443.04,-84 1443.04,-78 1449.04,-72 1455.04,-72 1455.04,-72 1520.04,-72 1520.04,-72 1526.04,-72 1532.04,-78 1532.04,-84 1532.04,-84 1532.04,-96 1532.04,-96 1532.04,-102 1526.04,-108 1520.04,-108"/>
<text text-anchor="middle" x="1487.54" y="-87.5" font-family="sans" font-size="10.00">Masked_FASTA</text>
</g>
<!-- 1&#45;&gt;30 -->
<g id="edge76" class="edge">
<title>1&#45;&gt;30</title>
<path fill="none" stroke="grey" stroke-width="2" d="M1399.65,-233.94C1430.6,-228.44 1471.94,-215.48 1492.54,-185 1505.72,-165.52 1502.5,-138.23 1497.16,-118.07"/>
<polygon fill="grey" stroke="grey" stroke-width="2" points="1500.45,-116.85 1494.24,-108.26 1493.73,-118.85 1500.45,-116.85"/>
</g>
<!-- 31 -->
<g id="node32" class="node">
<title>31</title>
<path fill="none" stroke="#56d88a" stroke-width="2" d="M1666.04,-108C1666.04,-108 1601.04,-108 1601.04,-108 1595.04,-108 1589.04,-102 1589.04,-96 1589.04,-96 1589.04,-84 1589.04,-84 1589.04,-78 1595.04,-72 1601.04,-72 1601.04,-72 1666.04,-72 1666.04,-72 1672.04,-72 1678.04,-78 1678.04,-84 1678.04,-84 1678.04,-96 1678.04,-96 1678.04,-102 1672.04,-108 1666.04,-108"/>
<text text-anchor="middle" x="1633.54" y="-87.5" font-family="sans" font-size="10.00">Masked_FASTA</text>
</g>
<!-- 1&#45;&gt;31 -->
<g id="edge78" class="edge">
<title>1&#45;&gt;31</title>
<path fill="none" stroke="grey" stroke-width="2" d="M1399.7,-236.64C1470.16,-233.27 1613.86,-221.94 1644.54,-185 1659.97,-166.43 1654.06,-138.2 1646.23,-117.53"/>
<polygon fill="grey" stroke="grey" stroke-width="2" points="1649.37,-115.96 1642.32,-108.06 1642.9,-118.64 1649.37,-115.96"/>
</g>
<!-- 32 -->
<g id="node33" class="node">
<title>32</title>
<path fill="none" stroke="#56d88a" stroke-width="2" d="M1812.04,-108C1812.04,-108 1747.04,-108 1747.04,-108 1741.04,-108 1735.04,-102 1735.04,-96 1735.04,-96 1735.04,-84 1735.04,-84 1735.04,-78 1741.04,-72 1747.04,-72 1747.04,-72 1812.04,-72 1812.04,-72 1818.04,-72 1824.04,-78 1824.04,-84 1824.04,-84 1824.04,-96 1824.04,-96 1824.04,-102 1818.04,-108 1812.04,-108"/>
<text text-anchor="middle" x="1779.54" y="-87.5" font-family="sans" font-size="10.00">Masked_FASTA</text>
</g>
<!-- 1&#45;&gt;32 -->
<g id="edge80" class="edge">
<title>1&#45;&gt;32</title>
<path fill="none" stroke="grey" stroke-width="2" d="M1399.84,-236.15C1502.11,-230.92 1770.41,-214.5 1796.54,-185 1812.85,-166.59 1804.56,-137.97 1794.7,-117.14"/>
<polygon fill="grey" stroke="grey" stroke-width="2" points="1797.8,-115.51 1790.14,-108.19 1791.56,-118.69 1797.8,-115.51"/>
</g>
<!-- 33 -->
<g id="node34" class="node">
<title>33</title>
<path fill="none" stroke="#56d88a" stroke-width="2" d="M1958.04,-108C1958.04,-108 1893.04,-108 1893.04,-108 1887.04,-108 1881.04,-102 1881.04,-96 1881.04,-96 1881.04,-84 1881.04,-84 1881.04,-78 1887.04,-72 1893.04,-72 1893.04,-72 1958.04,-72 1958.04,-72 1964.04,-72 1970.04,-78 1970.04,-84 1970.04,-84 1970.04,-96 1970.04,-96 1970.04,-102 1964.04,-108 1958.04,-108"/>
<text text-anchor="middle" x="1925.54" y="-87.5" font-family="sans" font-size="10.00">Masked_FASTA</text>
</g>
<!-- 1&#45;&gt;33 -->
<g id="edge82" class="edge">
<title>1&#45;&gt;33</title>
<path fill="none" stroke="grey" stroke-width="2" d="M1399.84,-237.46C1525.52,-235.32 1911.55,-225.48 1948.54,-185 1965.43,-166.53 1954.88,-137.73 1943.1,-116.87"/>
<polygon fill="grey" stroke="grey" stroke-width="2" points="1946.03,-114.96 1937.88,-108.19 1940.04,-118.57 1946.03,-114.96"/>
</g>
<!-- 34 -->
<g id="node35" class="node">
<title>34</title>
<path fill="none" stroke="#56d88a" stroke-width="2" d="M2104.04,-108C2104.04,-108 2039.04,-108 2039.04,-108 2033.04,-108 2027.04,-102 2027.04,-96 2027.04,-96 2027.04,-84 2027.04,-84 2027.04,-78 2033.04,-72 2039.04,-72 2039.04,-72 2104.04,-72 2104.04,-72 2110.04,-72 2116.04,-78 2116.04,-84 2116.04,-84 2116.04,-96 2116.04,-96 2116.04,-102 2110.04,-108 2104.04,-108"/>
<text text-anchor="middle" x="2071.54" y="-87.5" font-family="sans" font-size="10.00">Masked_FASTA</text>
</g>
<!-- 1&#45;&gt;34 -->
<g id="edge84" class="edge">
<title>1&#45;&gt;34</title>
<path fill="none" stroke="grey" stroke-width="2" d="M1399.69,-238.23C1545.68,-238.7 2052.52,-236.59 2100.54,-185 2117.96,-166.3 2105.11,-137.35 2091.42,-116.51"/>
<polygon fill="grey" stroke="grey" stroke-width="2" points="2094.18,-114.35 2085.59,-108.14 2088.43,-118.34 2094.18,-114.35"/>
</g>
<!-- 35 -->
<g id="node36" class="node">
<title>35</title>
<path fill="none" stroke="#56d88a" stroke-width="2" d="M2250.04,-108C2250.04,-108 2185.04,-108 2185.04,-108 2179.04,-108 2173.04,-102 2173.04,-96 2173.04,-96 2173.04,-84 2173.04,-84 2173.04,-78 2179.04,-72 2185.04,-72 2185.04,-72 2250.04,-72 2250.04,-72 2256.04,-72 2262.04,-78 2262.04,-84 2262.04,-84 2262.04,-96 2262.04,-96 2262.04,-102 2256.04,-108 2250.04,-108"/>
<text text-anchor="middle" x="2217.54" y="-87.5" font-family="sans" font-size="10.00">Masked_FASTA</text>
</g>
<!-- 1&#45;&gt;35 -->
<g id="edge86" class="edge">
<title>1&#45;&gt;35</title>
<path fill="none" stroke="grey" stroke-width="2" d="M1399.71,-237.15C1568.05,-233.33 2222.89,-216.47 2252.54,-185 2270.49,-165.95 2255.3,-136.87 2239.7,-116.1"/>
<polygon fill="grey" stroke="grey" stroke-width="2" points="2242.27,-113.7 2233.31,-108.04 2236.78,-118.05 2242.27,-113.7"/>
</g>
<!-- 36 -->
<g id="node37" class="node">
<title>36</title>
<path fill="none" stroke="#56d88a" stroke-width="2" d="M2396.04,-108C2396.04,-108 2331.04,-108 2331.04,-108 2325.04,-108 2319.04,-102 2319.04,-96 2319.04,-96 2319.04,-84 2319.04,-84 2319.04,-78 2325.04,-72 2331.04,-72 2331.04,-72 2396.04,-72 2396.04,-72 2402.04,-72 2408.04,-78 2408.04,-84 2408.04,-84 2408.04,-96 2408.04,-96 2408.04,-102 2402.04,-108 2396.04,-108"/>
<text text-anchor="middle" x="2363.54" y="-87.5" font-family="sans" font-size="10.00">Masked_FASTA</text>
</g>
<!-- 1&#45;&gt;36 -->
<g id="edge88" class="edge">
<title>1&#45;&gt;36</title>
<path fill="none" stroke="grey" stroke-width="2" d="M1399.66,-237.51C1585.22,-234.97 2369.28,-222.1 2404.54,-185 2422.95,-165.63 2405.69,-136.67 2388.25,-116.01"/>
<polygon fill="grey" stroke="grey" stroke-width="2" points="2390.63,-113.43 2381.38,-108.27 2385.4,-118.07 2390.63,-113.43"/>
</g>
<!-- 37 -->
<g id="node38" class="node">
<title>37</title>
<path fill="none" stroke="#56d88a" stroke-width="2" d="M2542.04,-108C2542.04,-108 2477.04,-108 2477.04,-108 2471.04,-108 2465.04,-102 2465.04,-96 2465.04,-96 2465.04,-84 2465.04,-84 2465.04,-78 2471.04,-72 2477.04,-72 2477.04,-72 2542.04,-72 2542.04,-72 2548.04,-72 2554.04,-78 2554.04,-84 2554.04,-84 2554.04,-96 2554.04,-96 2554.04,-102 2548.04,-108 2542.04,-108"/>
<text text-anchor="middle" x="2509.54" y="-87.5" font-family="sans" font-size="10.00">Masked_FASTA</text>
</g>
<!-- 1&#45;&gt;37 -->
<g id="edge90" class="edge">
<title>1&#45;&gt;37</title>
<path fill="none" stroke="grey" stroke-width="2" d="M1399.86,-237.77C1601.92,-236.37 2515.66,-227.73 2556.54,-185 2575.64,-165.04 2555.71,-135.81 2536.23,-115.26"/>
<polygon fill="grey" stroke="grey" stroke-width="2" points="2538.68,-112.75 2529.15,-108.11 2533.71,-117.68 2538.68,-112.75"/>
</g>
<!-- 38 -->
<g id="node39" class="node">
<title>38</title>
<path fill="none" stroke="#56d88a" stroke-width="2" d="M2688.04,-108C2688.04,-108 2623.04,-108 2623.04,-108 2617.04,-108 2611.04,-102 2611.04,-96 2611.04,-96 2611.04,-84 2611.04,-84 2611.04,-78 2617.04,-72 2623.04,-72 2623.04,-72 2688.04,-72 2688.04,-72 2694.04,-72 2700.04,-78 2700.04,-84 2700.04,-84 2700.04,-96 2700.04,-96 2700.04,-102 2694.04,-108 2688.04,-108"/>
<text text-anchor="middle" x="2655.54" y="-87.5" font-family="sans" font-size="10.00">Masked_FASTA</text>
</g>
<!-- 1&#45;&gt;38 -->
<g id="edge92" class="edge">
<title>1&#45;&gt;38</title>
<path fill="none" stroke="grey" stroke-width="2" d="M1399.74,-237.97C1616.68,-237.62 2662,-233.41 2708.54,-185 2728.17,-164.58 2706.14,-135.5 2684.8,-115.11"/>
<polygon fill="grey" stroke="grey" stroke-width="2" points="2687.09,-112.46 2677.35,-108.28 2682.36,-117.62 2687.09,-112.46"/>
</g>
<!-- 2 -->
<g id="node3" class="node">
<title>2</title>
<path fill="none" stroke="#d85656" stroke-width="2" d="M1375.54,-329C1375.54,-329 1345.54,-329 1345.54,-329 1339.54,-329 1333.54,-323 1333.54,-317 1333.54,-317 1333.54,-305 1333.54,-305 1333.54,-299 1339.54,-293 1345.54,-293 1345.54,-293 1375.54,-293 1375.54,-293 1381.54,-293 1387.54,-299 1387.54,-305 1387.54,-305 1387.54,-317 1387.54,-317 1387.54,-323 1381.54,-329 1375.54,-329"/>
<text text-anchor="middle" x="1360.54" y="-308.5" font-family="sans" font-size="10.00">Init</text>
</g>
<!-- 2&#45;&gt;1 -->
<g id="edge38" class="edge">
<title>2&#45;&gt;1</title>
<path fill="none" stroke="grey" stroke-width="2" d="M1360.54,-292.7C1360.54,-284.98 1360.54,-275.71 1360.54,-267.11"/>
<polygon fill="grey" stroke="grey" stroke-width="2" points="1364.04,-267.1 1360.54,-257.1 1357.04,-267.1 1364.04,-267.1"/>
</g>
<!-- 3&#45;&gt;0 -->
<g id="edge2" class="edge">
<title>3&#45;&gt;0</title>
<path fill="none" stroke="grey" stroke-width="2" d="M67.03,-143.91C66.57,-122.59 69.6,-89.23 90.54,-72 137.76,-33.14 1068.78,-21.64 1293.19,-19.43"/>
<polygon fill="grey" stroke="grey" stroke-width="2" points="1293.37,-22.93 1303.33,-19.33 1293.3,-15.93 1293.37,-22.93"/>
</g>
<!-- 3&#45;&gt;21 -->
<g id="edge57" class="edge">
<title>3&#45;&gt;21</title>
<path fill="none" stroke="grey" stroke-width="2" d="M89.31,-143.69C98.54,-134.89 109.48,-124.45 119.18,-115.19"/>
<polygon fill="grey" stroke="grey" stroke-width="2" points="121.82,-117.51 126.64,-108.08 116.99,-112.45 121.82,-117.51"/>
</g>
<!-- 4&#45;&gt;0 -->
<g id="edge3" class="edge">
<title>4&#45;&gt;0</title>
<path fill="none" stroke="grey" stroke-width="2" d="M219.04,-143.94C218.61,-122.63 221.65,-89.3 242.54,-72 283.54,-38.06 1086.14,-23.05 1293.16,-19.73"/>
<polygon fill="grey" stroke="grey" stroke-width="2" points="1293.47,-23.22 1303.41,-19.57 1293.36,-16.22 1293.47,-23.22"/>
</g>
<!-- 4&#45;&gt;22 -->
<g id="edge59" class="edge">
<title>4&#45;&gt;22</title>
<path fill="none" stroke="grey" stroke-width="2" d="M241.31,-143.69C250.54,-134.89 261.48,-124.45 271.18,-115.19"/>
<polygon fill="grey" stroke="grey" stroke-width="2" points="273.82,-117.51 278.64,-108.08 268.99,-112.45 273.82,-117.51"/>
</g>
<!-- 5&#45;&gt;0 -->
<g id="edge4" class="edge">
<title>5&#45;&gt;0</title>
<path fill="none" stroke="grey" stroke-width="2" d="M371.07,-143.97C370.65,-122.69 373.72,-89.38 394.54,-72 429.35,-42.96 1105.01,-24.66 1293.24,-20.12"/>
<polygon fill="grey" stroke="grey" stroke-width="2" points="1293.47,-23.61 1303.38,-19.87 1293.3,-16.61 1293.47,-23.61"/>
</g>
<!-- 5&#45;&gt;23 -->
<g id="edge61" class="edge">
<title>5&#45;&gt;23</title>
<path fill="none" stroke="grey" stroke-width="2" d="M393.31,-143.69C402.54,-134.89 413.48,-124.45 423.18,-115.19"/>
<polygon fill="grey" stroke="grey" stroke-width="2" points="425.82,-117.51 430.64,-108.08 420.99,-112.45 425.82,-117.51"/>
</g>
<!-- 6&#45;&gt;0 -->
<g id="edge5" class="edge">
<title>6&#45;&gt;0</title>
<path fill="none" stroke="grey" stroke-width="2" d="M523.1,-143.62C522.76,-122.37 525.94,-89.38 546.54,-72 603.61,-23.86 1129.8,-19.22 1293.3,-18.95"/>
<polygon fill="grey" stroke="grey" stroke-width="2" points="1293.54,-22.45 1303.54,-18.94 1293.54,-15.45 1293.54,-22.45"/>
</g>
<!-- 6&#45;&gt;24 -->
<g id="edge63" class="edge">
<title>6&#45;&gt;24</title>
<path fill="none" stroke="grey" stroke-width="2" d="M545.31,-143.69C554.54,-134.89 565.48,-124.45 575.18,-115.19"/>
<polygon fill="grey" stroke="grey" stroke-width="2" points="577.82,-117.51 582.64,-108.08 572.99,-112.45 577.82,-117.51"/>
</g>
<!-- 7&#45;&gt;0 -->
<g id="edge6" class="edge">
<title>7&#45;&gt;0</title>
<path fill="none" stroke="grey" stroke-width="2" d="M675.15,-143.68C674.85,-122.48 678.08,-89.54 698.54,-72 743.4,-33.56 1151.02,-22.48 1293.02,-19.77"/>
<polygon fill="grey" stroke="grey" stroke-width="2" points="1293.24,-23.27 1303.18,-19.59 1293.11,-16.27 1293.24,-23.27"/>
</g>
<!-- 7&#45;&gt;25 -->
<g id="edge65" class="edge">
<title>7&#45;&gt;25</title>
<path fill="none" stroke="grey" stroke-width="2" d="M697.31,-143.69C706.54,-134.89 717.48,-124.45 727.18,-115.19"/>
<polygon fill="grey" stroke="grey" stroke-width="2" points="729.82,-117.51 734.64,-108.08 724.99,-112.45 729.82,-117.51"/>
</g>
<!-- 8&#45;&gt;0 -->
<g id="edge7" class="edge">
<title>8&#45;&gt;0</title>
<path fill="none" stroke="grey" stroke-width="2" d="M827,-143.8C826.53,-122.71 829.44,-89.86 849.54,-72 882.32,-42.89 1175.54,-26.51 1293.1,-21.06"/>
<polygon fill="grey" stroke="grey" stroke-width="2" points="1293.43,-24.55 1303.26,-20.6 1293.11,-17.56 1293.43,-24.55"/>
</g>
<!-- 8&#45;&gt;26 -->
<g id="edge67" class="edge">
<title>8&#45;&gt;26</title>
<path fill="none" stroke="grey" stroke-width="2" d="M849.04,-143.69C858.07,-134.96 868.78,-124.61 878.3,-115.4"/>
<polygon fill="grey" stroke="grey" stroke-width="2" points="880.87,-117.79 885.63,-108.32 876.01,-112.75 880.87,-117.79"/>
</g>
<!-- 9&#45;&gt;0 -->
<g id="edge8" class="edge">
<title>9&#45;&gt;0</title>
<path fill="none" stroke="grey" stroke-width="2" d="M977.69,-143.74C975.9,-122.9 976.78,-90.57 995.54,-72 1036.7,-31.27 1208.29,-21.81 1293.33,-19.64"/>
<polygon fill="grey" stroke="grey" stroke-width="2" points="1293.59,-23.13 1303.51,-19.4 1293.43,-16.13 1293.59,-23.13"/>
</g>
<!-- 9&#45;&gt;27 -->
<g id="edge69" class="edge">
<title>9&#45;&gt;27</title>
<path fill="none" stroke="grey" stroke-width="2" d="M999.4,-143.69C1007.63,-135.04 1017.37,-124.81 1026.06,-115.68"/>
<polygon fill="grey" stroke="grey" stroke-width="2" points="1028.7,-117.98 1033.06,-108.32 1023.63,-113.15 1028.7,-117.98"/>
</g>
<!-- 10&#45;&gt;0 -->
<g id="edge9" class="edge">
<title>10&#45;&gt;0</title>
<path fill="none" stroke="grey" stroke-width="2" d="M1128.57,-143.89C1125.65,-123.49 1124.69,-91.82 1141.54,-72 1161.02,-49.11 1240.49,-33.5 1293.21,-25.43"/>
<polygon fill="grey" stroke="grey" stroke-width="2" points="1293.99,-28.85 1303.37,-23.92 1292.96,-21.93 1293.99,-28.85"/>
</g>
<!-- 10&#45;&gt;28 -->
<g id="edge71" class="edge">
<title>10&#45;&gt;28</title>
<path fill="none" stroke="grey" stroke-width="2" d="M1149.76,-143.69C1157.2,-135.13 1165.99,-125.02 1173.86,-115.95"/>
<polygon fill="grey" stroke="grey" stroke-width="2" points="1176.58,-118.16 1180.49,-108.32 1171.29,-113.57 1176.58,-118.16"/>
</g>
<!-- 11&#45;&gt;0 -->
<g id="edge10" class="edge">
<title>11&#45;&gt;0</title>
<path fill="none" stroke="grey" stroke-width="2" d="M1281.09,-143.65C1278.67,-124.46 1277.45,-94.99 1287.54,-72 1292.36,-61.02 1300.61,-51.14 1309.23,-42.96"/>
<polygon fill="grey" stroke="grey" stroke-width="2" points="1311.66,-45.48 1316.82,-36.23 1307.02,-40.24 1311.66,-45.48"/>
</g>
<!-- 11&#45;&gt;29 -->
<g id="edge73" class="edge">
<title>11&#45;&gt;29</title>
<path fill="none" stroke="grey" stroke-width="2" d="M1300.12,-143.69C1306.78,-135.21 1314.64,-125.22 1321.71,-116.23"/>
<polygon fill="grey" stroke="grey" stroke-width="2" points="1324.5,-118.34 1327.93,-108.32 1319,-114.02 1324.5,-118.34"/>
</g>
<!-- 12&#45;&gt;0 -->
<g id="edge11" class="edge">
<title>12&#45;&gt;0</title>
<path fill="none" stroke="grey" stroke-width="2" d="M1429.86,-143.87C1422.77,-124.59 1410.42,-94.81 1394.54,-72 1387.42,-61.76 1378.19,-51.75 1369.44,-43.24"/>
<polygon fill="grey" stroke="grey" stroke-width="2" points="1371.62,-40.48 1361.94,-36.18 1366.82,-45.58 1371.62,-40.48"/>
</g>
<!-- 12&#45;&gt;30 -->
<g id="edge75" class="edge">
<title>12&#45;&gt;30</title>
<path fill="none" stroke="grey" stroke-width="2" d="M1450.48,-143.69C1456.38,-135.3 1463.33,-125.42 1469.61,-116.5"/>
<polygon fill="grey" stroke="grey" stroke-width="2" points="1472.47,-118.51 1475.36,-108.32 1466.75,-114.48 1472.47,-118.51"/>
</g>
<!-- 13&#45;&gt;0 -->
<g id="edge12" class="edge">
<title>13&#45;&gt;0</title>
<path fill="none" stroke="grey" stroke-width="2" d="M1583.31,-143.66C1576.77,-122.75 1563.53,-90.36 1540.54,-72 1497.23,-37.4 1433.37,-25.27 1389.75,-21.08"/>
<polygon fill="grey" stroke="grey" stroke-width="2" points="1389.93,-17.59 1379.67,-20.22 1389.34,-24.56 1389.93,-17.59"/>
</g>
<!-- 13&#45;&gt;31 -->
<g id="edge77" class="edge">
<title>13&#45;&gt;31</title>
<path fill="none" stroke="grey" stroke-width="2" d="M1600.84,-143.69C1605.94,-135.47 1611.93,-125.83 1617.37,-117.05"/>
<polygon fill="grey" stroke="grey" stroke-width="2" points="1620.49,-118.66 1622.79,-108.32 1614.55,-114.97 1620.49,-118.66"/>
</g>
<!-- 14&#45;&gt;0 -->
<g id="edge13" class="edge">
<title>14&#45;&gt;0</title>
<path fill="none" stroke="grey" stroke-width="2" d="M1734.62,-143.89C1727.08,-122.54 1711.9,-89.16 1686.54,-72 1639.02,-39.83 1472.98,-26.25 1389.8,-21.36"/>
<polygon fill="grey" stroke="grey" stroke-width="2" points="1389.78,-17.86 1379.59,-20.78 1389.38,-24.85 1389.78,-17.86"/>
</g>
<!-- 14&#45;&gt;32 -->
<g id="edge79" class="edge">
<title>14&#45;&gt;32</title>
<path fill="none" stroke="grey" stroke-width="2" d="M1751.2,-143.69C1755.57,-135.56 1760.7,-126.03 1765.38,-117.33"/>
<polygon fill="grey" stroke="grey" stroke-width="2" points="1768.57,-118.78 1770.23,-108.32 1762.41,-115.47 1768.57,-118.78"/>
</g>
<!-- 15&#45;&gt;0 -->
<g id="edge14" class="edge">
<title>15&#45;&gt;0</title>
<path fill="none" stroke="grey" stroke-width="2" d="M1885.49,-143.63C1876.69,-122.04 1859.44,-88.45 1832.54,-72 1759.03,-27.03 1498.23,-20.01 1389.59,-19.06"/>
<polygon fill="grey" stroke="grey" stroke-width="2" points="1389.59,-15.56 1379.57,-18.99 1389.54,-22.56 1389.59,-15.56"/>
</g>
<!-- 15&#45;&gt;33 -->
<g id="edge81" class="edge">
<title>15&#45;&gt;33</title>
<path fill="none" stroke="grey" stroke-width="2" d="M1901.56,-143.69C1905.22,-135.65 1909.51,-126.24 1913.43,-117.61"/>
<polygon fill="grey" stroke="grey" stroke-width="2" points="1916.7,-118.87 1917.66,-108.32 1910.33,-115.97 1916.7,-118.87"/>
</g>
<!-- 16&#45;&gt;0 -->
<g id="edge15" class="edge">
<title>16&#45;&gt;0</title>
<path fill="none" stroke="grey" stroke-width="2" d="M2036.49,-143.85C2026.43,-122.13 2007.02,-88.1 1978.54,-72 1927.71,-43.27 1529.85,-25.95 1389.98,-20.71"/>
<polygon fill="grey" stroke="grey" stroke-width="2" points="1390.09,-17.21 1379.97,-20.33 1389.83,-24.2 1390.09,-17.21"/>
</g>
<!-- 16&#45;&gt;34 -->
<g id="edge83" class="edge">
<title>16&#45;&gt;34</title>
<path fill="none" stroke="grey" stroke-width="2" d="M2051.92,-143.69C2054.89,-135.73 2058.35,-126.44 2061.53,-117.89"/>
<polygon fill="grey" stroke="grey" stroke-width="2" points="2064.88,-118.91 2065.09,-108.32 2058.32,-116.47 2064.88,-118.91"/>
</g>
<!-- 17&#45;&gt;0 -->
<g id="edge16" class="edge">
<title>17&#45;&gt;0</title>
<path fill="none" stroke="grey" stroke-width="2" d="M2183.9,-143.88C2167.77,-119.53 2140.1,-80.21 2124.54,-72 2059.7,-37.76 1550.23,-23.63 1389.77,-20"/>
<polygon fill="grey" stroke="grey" stroke-width="2" points="1389.79,-16.5 1379.71,-19.77 1389.63,-23.5 1389.79,-16.5"/>
</g>
<!-- 17&#45;&gt;35 -->
<g id="edge85" class="edge">
<title>17&#45;&gt;35</title>
<path fill="none" stroke="grey" stroke-width="2" d="M2202.28,-143.69C2204.56,-135.82 2207.22,-126.64 2209.68,-118.17"/>
<polygon fill="grey" stroke="grey" stroke-width="2" points="2213.11,-118.9 2212.53,-108.32 2206.38,-116.95 2213.11,-118.9"/>
</g>
<!-- 18&#45;&gt;0 -->
<g id="edge17" class="edge">
<title>18&#45;&gt;0</title>
<path fill="none" stroke="grey" stroke-width="2" d="M2334.67,-143.84C2317,-119.45 2286.81,-80.08 2270.54,-72 2191.41,-32.7 1569.1,-21.86 1389.76,-19.54"/>
<polygon fill="grey" stroke="grey" stroke-width="2" points="1389.62,-16.04 1379.58,-19.41 1389.53,-23.04 1389.62,-16.04"/>
</g>
<!-- 18&#45;&gt;36 -->
<g id="edge87" class="edge">
<title>18&#45;&gt;36</title>
<path fill="none" stroke="grey" stroke-width="2" d="M2352.64,-143.69C2354.27,-135.82 2356.17,-126.64 2357.92,-118.17"/>
<polygon fill="grey" stroke="grey" stroke-width="2" points="2361.36,-118.82 2359.96,-108.32 2354.51,-117.4 2361.36,-118.82"/>
</g>
<!-- 19&#45;&gt;0 -->
<g id="edge18" class="edge">
<title>19&#45;&gt;0</title>
<path fill="none" stroke="grey" stroke-width="2" d="M2483.95,-143.9C2462.03,-118.24 2425.18,-76.05 2416.54,-72 2322.85,-28.04 1586.28,-20.47 1389.65,-19.23"/>
<polygon fill="grey" stroke="grey" stroke-width="2" points="1389.65,-15.73 1379.62,-19.17 1389.6,-22.73 1389.65,-15.73"/>
</g>
<!-- 19&#45;&gt;37 -->
<g id="edge89" class="edge">
<title>19&#45;&gt;37</title>
<path fill="none" stroke="grey" stroke-width="2" d="M2503,-143.69C2503.97,-135.91 2505.1,-126.84 2506.14,-118.45"/>
<polygon fill="grey" stroke="grey" stroke-width="2" points="2509.64,-118.67 2507.39,-108.32 2502.69,-117.81 2509.64,-118.67"/>
</g>
<!-- 20&#45;&gt;0 -->
<g id="edge19" class="edge">
<title>20&#45;&gt;0</title>
<path fill="none" stroke="grey" stroke-width="2" d="M2634.7,-143.88C2611.13,-118.21 2571.55,-76.01 2562.54,-72 2454.17,-23.8 1603.62,-19.37 1390.06,-19.02"/>
<polygon fill="grey" stroke="grey" stroke-width="2" points="1389.8,-15.52 1379.8,-19 1389.79,-22.52 1389.8,-15.52"/>
</g>
<!-- 20&#45;&gt;38 -->
<g id="edge91" class="edge">
<title>20&#45;&gt;38</title>
<path fill="none" stroke="grey" stroke-width="2" d="M2653.36,-143.69C2653.69,-135.91 2654.06,-126.84 2654.41,-118.45"/>
<polygon fill="grey" stroke="grey" stroke-width="2" points="2657.91,-118.46 2654.83,-108.32 2650.92,-118.17 2657.91,-118.46"/>
</g>
<!-- 21&#45;&gt;0 -->
<g id="edge20" class="edge">
<title>21&#45;&gt;0</title>
<path fill="none" stroke="grey" stroke-width="2" d="M189.05,-75.88C195.54,-74.35 202.18,-72.98 208.54,-72 422.58,-38.95 1105.29,-23.57 1293.24,-19.89"/>
<polygon fill="grey" stroke="grey" stroke-width="2" points="1293.44,-23.39 1303.37,-19.69 1293.3,-16.39 1293.44,-23.39"/>
</g>
<!-- 22&#45;&gt;0 -->
<g id="edge21" class="edge">
<title>22&#45;&gt;0</title>
<path fill="none" stroke="grey" stroke-width="2" d="M341.05,-75.93C347.55,-74.38 354.19,-73.01 360.54,-72 543.4,-43.09 1121.53,-25.1 1293.1,-20.3"/>
<polygon fill="grey" stroke="grey" stroke-width="2" points="1293.43,-23.79 1303.33,-20.01 1293.24,-16.79 1293.43,-23.79"/>
</g>
<!-- 23&#45;&gt;0 -->
<g id="edge22" class="edge">
<title>23&#45;&gt;0</title>
<path fill="none" stroke="grey" stroke-width="2" d="M493.06,-75.98C499.55,-74.43 506.19,-73.04 512.54,-72 806.04,-24.11 1164.58,-18.98 1292.96,-18.8"/>
<polygon fill="grey" stroke="grey" stroke-width="2" points="1293.24,-22.3 1303.24,-18.8 1293.23,-15.3 1293.24,-22.3"/>
</g>
<!-- 24&#45;&gt;0 -->
<g id="edge23" class="edge">
<title>24&#45;&gt;0</title>
<path fill="none" stroke="grey" stroke-width="2" d="M645.08,-76.07C651.57,-74.5 658.2,-73.08 664.54,-72 897.88,-32.22 1181.63,-22.24 1293.2,-19.78"/>
<polygon fill="grey" stroke="grey" stroke-width="2" points="1293.52,-23.27 1303.45,-19.57 1293.38,-16.28 1293.52,-23.27"/>
</g>
<!-- 25&#45;&gt;0 -->
<g id="edge24" class="edge">
<title>25&#45;&gt;0</title>
<path fill="none" stroke="grey" stroke-width="2" d="M797.08,-76.02C803.25,-74.5 809.53,-73.11 815.54,-72 989.59,-39.97 1199.86,-26.12 1293.05,-21.24"/>
<polygon fill="grey" stroke="grey" stroke-width="2" points="1293.48,-24.72 1303.29,-20.71 1293.12,-17.73 1293.48,-24.72"/>
</g>
<!-- 26&#45;&gt;0 -->
<g id="edge25" class="edge">
<title>26&#45;&gt;0</title>
<path fill="none" stroke="grey" stroke-width="2" d="M948.15,-75.43C952.99,-74.17 957.85,-73 962.54,-72 1080.07,-46.98 1220.7,-30.86 1293.13,-23.55"/>
<polygon fill="grey" stroke="grey" stroke-width="2" points="1293.71,-27.01 1303.31,-22.54 1293.01,-20.05 1293.71,-27.01"/>
</g>
<!-- 27&#45;&gt;0 -->
<g id="edge26" class="edge">
<title>27&#45;&gt;0</title>
<path fill="none" stroke="grey" stroke-width="2" d="M1094.25,-75.83C1099.06,-74.5 1103.9,-73.2 1108.54,-72 1172.17,-55.61 1246.25,-39.22 1293.5,-29.09"/>
<polygon fill="grey" stroke="grey" stroke-width="2" points="1294.4,-32.48 1303.45,-26.97 1292.94,-25.63 1294.4,-32.48"/>
</g>
<!-- 28&#45;&gt;0 -->
<g id="edge27" class="edge">
<title>28&#45;&gt;0</title>
<path fill="none" stroke="grey" stroke-width="2" d="M1231.26,-71.88C1251.04,-62.39 1275.82,-50.51 1296.87,-40.42"/>
<polygon fill="grey" stroke="grey" stroke-width="2" points="1298.44,-43.55 1305.95,-36.07 1295.41,-37.24 1298.44,-43.55"/>
</g>
<!-- 29&#45;&gt;0 -->
<g id="edge28" class="edge">
<title>29&#45;&gt;0</title>
<path fill="none" stroke="grey" stroke-width="2" d="M1341.54,-71.7C1341.54,-63.98 1341.54,-54.71 1341.54,-46.11"/>
<polygon fill="grey" stroke="grey" stroke-width="2" points="1345.04,-46.1 1341.54,-36.1 1338.04,-46.1 1345.04,-46.1"/>
</g>
<!-- 30&#45;&gt;0 -->
<g id="edge29" class="edge">
<title>30&#45;&gt;0</title>
<path fill="none" stroke="grey" stroke-width="2" d="M1451.83,-71.88C1432.05,-62.39 1407.27,-50.51 1386.22,-40.42"/>
<polygon fill="grey" stroke="grey" stroke-width="2" points="1387.67,-37.24 1377.14,-36.07 1384.65,-43.55 1387.67,-37.24"/>
</g>
<!-- 31&#45;&gt;0 -->
<g id="edge30" class="edge">
<title>31&#45;&gt;0</title>
<path fill="none" stroke="grey" stroke-width="2" d="M1588.84,-75.83C1584.03,-74.5 1579.19,-73.2 1574.54,-72 1510.92,-55.61 1436.84,-39.22 1389.59,-29.09"/>
<polygon fill="grey" stroke="grey" stroke-width="2" points="1390.15,-25.63 1379.64,-26.97 1388.69,-32.48 1390.15,-25.63"/>
</g>
<!-- 32&#45;&gt;0 -->
<g id="edge31" class="edge">
<title>32&#45;&gt;0</title>
<path fill="none" stroke="grey" stroke-width="2" d="M1734.93,-75.43C1730.1,-74.17 1725.24,-73 1720.54,-72 1603.02,-46.98 1462.39,-30.86 1389.96,-23.55"/>
<polygon fill="grey" stroke="grey" stroke-width="2" points="1390.08,-20.05 1379.78,-22.54 1389.38,-27.01 1390.08,-20.05"/>
</g>
<!-- 33&#45;&gt;0 -->
<g id="edge32" class="edge">
<title>33&#45;&gt;0</title>
<path fill="none" stroke="grey" stroke-width="2" d="M1880.97,-75.24C1876.13,-74.02 1871.25,-72.91 1866.54,-72 1693.1,-38.54 1483.1,-25.42 1390,-20.98"/>
<polygon fill="grey" stroke="grey" stroke-width="2" points="1389.92,-17.47 1379.77,-20.5 1389.59,-24.46 1389.92,-17.47"/>
</g>
<!-- 34&#45;&gt;0 -->
<g id="edge33" class="edge">
<title>34&#45;&gt;0</title>
<path fill="none" stroke="grey" stroke-width="2" d="M2026.99,-75.14C2022.15,-73.94 2017.26,-72.86 2012.54,-72 1781.98,-30.12 1500.91,-21.33 1389.93,-19.49"/>
<polygon fill="grey" stroke="grey" stroke-width="2" points="1389.78,-15.99 1379.72,-19.33 1389.67,-22.98 1389.78,-15.99"/>
</g>
<!-- 35&#45;&gt;0 -->
<g id="edge34" class="edge">
<title>35&#45;&gt;0</title>
<path fill="none" stroke="grey" stroke-width="2" d="M2173,-75.07C2168.16,-73.88 2163.27,-72.82 2158.54,-72 1870.15,-21.71 1516.98,-18.03 1389.93,-18.52"/>
<polygon fill="grey" stroke="grey" stroke-width="2" points="1389.74,-15.02 1379.76,-18.57 1389.78,-22.02 1389.74,-15.02"/>
</g>
<!-- 36&#45;&gt;0 -->
<g id="edge35" class="edge">
<title>36&#45;&gt;0</title>
<path fill="none" stroke="grey" stroke-width="2" d="M2319.01,-75.02C2314.16,-73.85 2309.27,-72.8 2304.54,-72 2125.56,-41.69 1558.89,-24.7 1389.7,-20.21"/>
<polygon fill="grey" stroke="grey" stroke-width="2" points="1389.69,-16.71 1379.6,-19.95 1389.51,-23.71 1389.69,-16.71"/>
</g>
<!-- 37&#45;&gt;0 -->
<g id="edge36" class="edge">
<title>37&#45;&gt;0</title>
<path fill="none" stroke="grey" stroke-width="2" d="M2465.02,-74.99C2460.17,-73.82 2455.28,-72.78 2450.54,-72 2241.85,-37.43 1575.79,-23.18 1390.05,-19.82"/>
<polygon fill="grey" stroke="grey" stroke-width="2" points="1389.84,-16.31 1379.78,-19.63 1389.72,-23.31 1389.84,-16.31"/>
</g>
<!-- 38&#45;&gt;0 -->
<g id="edge37" class="edge">
<title>38&#45;&gt;0</title>
<path fill="none" stroke="grey" stroke-width="2" d="M2611.02,-74.96C2606.17,-73.8 2601.28,-72.77 2596.54,-72 2357.86,-33.15 1590.81,-21.83 1390.02,-19.51"/>
<polygon fill="grey" stroke="grey" stroke-width="2" points="1389.84,-16 1379.8,-19.39 1389.76,-23 1389.84,-16"/>
</g>
</g>
</svg>
